<?xml version="1.0" encoding="UTF-8" standalone="no"?>
<!-- Created with Inkscape (http://www.inkscape.org/) -->

<svg
   width="128"
   height="128"
   viewBox="0 0 33.866667 33.866667"
   version="1.1"
   id="svg5"
   inkscape:version="1.1 (c68e22c387, 2021-05-23)"
   sodipodi:docname="balloon.v3.svg"
   inkscape:export-filename="C:\Users\james\Pictures\POP2.png"
   inkscape:export-xdpi="96"
   inkscape:export-ydpi="96"
   xmlns:inkscape="http://www.inkscape.org/namespaces/inkscape"
   xmlns:sodipodi="http://sodipodi.sourceforge.net/DTD/sodipodi-0.dtd"
   xmlns="http://www.w3.org/2000/svg"
   xmlns:svg="http://www.w3.org/2000/svg">
  <sodipodi:namedview
     id="namedview7"
     pagecolor="#ffffff"
     bordercolor="#666666"
     borderopacity="1.0"
     inkscape:pageshadow="2"
     inkscape:pageopacity="0.0"
     inkscape:pagecheckerboard="0"
     inkscape:document-units="mm"
     showgrid="false"
     inkscape:zoom="1"
     inkscape:cx="-78"
     inkscape:cy="-115.5"
     inkscape:window-width="1920"
     inkscape:window-height="1017"
     inkscape:window-x="-8"
     inkscape:window-y="-8"
     inkscape:window-maximized="1"
     inkscape:current-layer="layer1"
     units="px"
     inkscape:snap-nodes="false"
     inkscape:snap-global="false" />
  <defs
     id="defs2" />
  <g
     inkscape:label="Layer 1"
     inkscape:groupmode="layer"
     id="layer1">
    <g
       id="g33905"
       transform="matrix(3.8241685,0,0,3.8241685,0.69594952,0.7443535)">
      <g
         id="g1551"
         transform="matrix(0.10558997,0,0,0.10498247,-10.033306,-13.745469)">
        <path
           id="path912"
           style="fill:#0000ff;stroke-width:11.1806;stroke-linecap:square"
           d="m 163.84976,161.17245 c 0,15.87055 -12.15168,38.73137 -28.02223,38.73137 -15.87055,0 -29.45012,-22.86082 -29.45012,-38.73137 0,-15.87055 12.86563,-28.73617 28.73618,-28.73617 15.87055,0 28.73617,12.86562 28.73617,28.73617 z"
           sodipodi:nodetypes="sssss" />
        <path
           style="fill:#0000ff;stroke:none;stroke-width:0.139507px;stroke-linecap:butt;stroke-linejoin:miter;stroke-opacity:1"
           d="m 135.54519,196.33413 -4.89375,9.03462 4.70553,-2.25866 4.70552,6.96419 -2.44687,-9.22284 3.38798,1.88221 z"
           id="path1154" />
      </g>
      <path
         id="rect1596"
         style="fill:#ffffff;stroke-width:10;stroke-linecap:square"
         d="m 2.5721476,1.2797 c 0,0 0.1926308,-0.08571 0.2859981,-0.1034633 0.1123663,-0.021371 0.3570384,-0.084071 0.3570384,-0.084071 0.096338,-4.104e-4 0.1664636,0.042584 0.1449652,0.1351095 l -0.078728,0.3388333 c -0.021504,0.092527 -0.1262381,0.1985089 -0.2225767,0.1989205 0,0 -0.2446729,0.062704 -0.3570384,0.084071 C 2.6084379,1.866855 2.415807,1.9525644 2.415807,1.9525644 2.3114539,1.9903144 2.2493436,1.9099794 2.2708418,1.8174539 l 0.078728,-0.338833 C 2.3710635,1.3860959 2.4703383,1.2973756 2.5721476,1.2797 Z"
         sodipodi:nodetypes="sssssssssss" />
      <path
         style="fill:none;stroke:#000000;stroke-width:0.10867;stroke-linecap:round;stroke-linejoin:miter;stroke-miterlimit:4;stroke-dasharray:none;stroke-opacity:0.385338"
         d="m 3.3368676,6.9285632 c 0,0 0.2951687,0.1325615 0.4513438,0.1767424 0.1389146,0.039299 0.2824978,0.072114 0.4275888,0.077324 0.1035442,0.00371 0.2067915,-0.016279 0.3088143,-0.033139 C 4.6409056,7.1302719 4.7570373,7.1069812 4.869061,7.0721665 5.0204319,7.0251231 5.3085273,6.8954243 5.3085273,6.8954243"
         id="path2668"
         sodipodi:nodetypes="cssssc" />
      <g
         id="g18564"
         transform="translate(-0.17826291,0.35456142)">
        <path
           sodipodi:type="star"
           style="fill:#000000;stroke:none;stroke-width:0.4;stroke-linecap:round;stroke-miterlimit:4;stroke-dasharray:none;stroke-opacity:0.385338"
           id="path18176-7"
           inkscape:flatsided="false"
           sodipodi:sides="16"
           sodipodi:cx="16.696131"
           sodipodi:cy="-58.352135"
           sodipodi:r1="33.759899"
           sodipodi:r2="23.949209"
           sodipodi:arg1="0.37865109"
           sodipodi:arg2="0.57500063"
           inkscape:rounded="0"
           inkscape:randomized="0"
           transform="matrix(0.10253057,0,-0.02601671,0.04275232,1.2767659,6.4883043)"
           d="m 48.064618,-45.872199 -11.270503,0.54449 4.106854,10.509732 -10.620954,-3.809992 -0.227661,11.281352 -8.354462,-7.584437 -4.527518,10.335487 -4.816078,-10.20422 -8.138101,7.81614 -0.5444901,-11.270504 -10.5097317,4.106855 3.8099917,-10.620955 -11.2813519,-0.227661 7.5844373,-8.354462 -10.3354873,-4.527518 10.2042199,-4.816078 -7.8161399,-8.1381 11.2705039,-0.544491 -4.1068549,-10.509731 10.6209548,3.809991 0.2276611,-11.281351 8.3544621,7.584437 4.527518,-10.335488 4.816078,10.20422 8.1381,-7.816139 0.544491,11.270503 10.509731,-4.106854 -3.809991,10.620954 11.281351,0.227661 -7.584437,8.354462 10.335488,4.527518 -10.20422,4.816078 z" />
        <path
           sodipodi:type="star"
           style="fill:#ffff00;stroke:#ffffff;stroke-width:0.4;stroke-linecap:round;stroke-miterlimit:4;stroke-dasharray:none;stroke-opacity:0.385338"
           id="path18176"
           inkscape:flatsided="false"
           sodipodi:sides="16"
           sodipodi:cx="16.696131"
           sodipodi:cy="-58.352135"
           sodipodi:r1="33.759899"
           sodipodi:r2="23.949209"
           sodipodi:arg1="0.37865109"
           sodipodi:arg2="0.57500063"
           inkscape:rounded="0"
           inkscape:randomized="0"
           transform="matrix(0.10253057,0,-0.02601671,0.04275232,1.1368918,6.2792654)"
           d="m 48.064618,-45.872199 -11.270503,0.54449 4.106854,10.509732 -10.620954,-3.809992 -0.227661,11.281352 -8.354462,-7.584437 -4.527518,10.335487 -4.816078,-10.20422 -8.138101,7.81614 -0.5444901,-11.270504 -10.5097317,4.106855 3.8099917,-10.620955 -11.2813519,-0.227661 7.5844373,-8.354462 -10.3354873,-4.527518 10.2042199,-4.816078 -7.8161399,-8.1381 11.2705039,-0.544491 -4.1068549,-10.509731 10.6209548,3.809991 0.2276611,-11.281351 8.3544621,7.584437 4.527518,-10.335488 4.816078,10.20422 8.1381,-7.816139 0.544491,11.270503 10.509731,-4.106854 -3.809991,10.620954 11.281351,0.227661 -7.584437,8.354462 10.335488,4.527518 -10.20422,4.816078 z" />
      </g>
      <g
         id="g24620"
         transform="translate(-0.05266928,0.24193047)">
        <text
           xml:space="preserve"
           style="font-style:normal;font-variant:normal;font-weight:normal;font-stretch:normal;font-size:1.41111px;line-height:1.25;font-family:'Tempus Sans ITC';-inkscape-font-specification:'Tempus Sans ITC';fill:#000000;fill-opacity:1;stroke:none;stroke-width:0.264583"
           x="2.6023154"
           y="4.580615"
           id="text4671-3"><tspan
             sodipodi:role="line"
             id="tspan4669-2"
             style="font-style:normal;font-variant:normal;font-weight:normal;font-stretch:normal;font-size:1.41111px;font-family:'Showcard Gothic';-inkscape-font-specification:'Showcard Gothic, Normal';font-variant-ligatures:normal;font-variant-caps:normal;font-variant-numeric:normal;font-variant-east-asian:normal;fill:#000000;stroke-width:0.264583"
             x="2.6023154"
             y="4.580615">Pop!</tspan></text>
        <text
           xml:space="preserve"
           style="font-style:normal;font-variant:normal;font-weight:normal;font-stretch:normal;font-size:1.41111px;line-height:1.25;font-family:'Tempus Sans ITC';-inkscape-font-specification:'Tempus Sans ITC';fill:#000000;fill-opacity:1;stroke:none;stroke-width:0.264583"
           x="2.5673161"
           y="4.4660354"
           id="text4671"><tspan
             sodipodi:role="line"
             id="tspan4669"
             style="font-style:normal;font-variant:normal;font-weight:normal;font-stretch:normal;font-size:1.41111px;font-family:'Showcard Gothic';-inkscape-font-specification:'Showcard Gothic, Normal';font-variant-ligatures:normal;font-variant-caps:normal;font-variant-numeric:normal;font-variant-east-asian:normal;fill:#800080;stroke-width:0.264583"
             x="2.5673161"
             y="4.4660354">Pop!</tspan></text>
      </g>
      <g
         id="g28489">
        <rect
           style="fill:#000000;stroke:none;stroke-width:0.105833;stroke-linecap:round;stroke-miterlimit:4;stroke-dasharray:none;stroke-opacity:0.385338"
           id="rect24644"
           width="1.6701822"
           height="1.2071614"
           x="0.67799479"
           y="6.3499999"
           rx="0.17729121"
           ry="0.16613585" />
        <circle
           style="fill:#ececec;stroke:none;stroke-width:0.105833;stroke-linecap:round;stroke-miterlimit:4;stroke-dasharray:none;stroke-opacity:0.385338"
           id="path24794"
           cx="1.5130858"
           cy="6.9453125"
           r="0.31419271" />
        <rect
           style="fill:#000000;fill-opacity:1;stroke:none;stroke-width:0.105833;stroke-linecap:round;stroke-miterlimit:4;stroke-dasharray:none;stroke-opacity:0.385338"
           id="rect24917"
           width="0.66145831"
           height="0.47955728"
           x="1.1823567"
           y="6.1350265"
           rx="0.17729121"
           ry="0.16613585" />
        <rect
           style="fill:#e6e6e6;fill-opacity:1;stroke:none;stroke-width:0.0380069;stroke-linecap:round;stroke-miterlimit:4;stroke-dasharray:none;stroke-opacity:0.385338"
           id="rect27812"
           width="0.21497396"
           height="0.082682312"
           x="1.9347656"
           y="6.5319014" />
        <g
           id="g28476"
           transform="translate(0,0.09921885)">
          <ellipse
             style="fill:none;fill-opacity:1;stroke:#000000;stroke-width:0.0379313;stroke-linecap:round;stroke-miterlimit:4;stroke-dasharray:none;stroke-opacity:1"
             id="path28002"
             cx="1.5130858"
             cy="6.8460937"
             rx="0.24892484"
             ry="0.10371868" />
          <ellipse
             style="fill:#000000;fill-opacity:1;stroke:none;stroke-width:0.105833;stroke-linecap:round;stroke-miterlimit:4;stroke-dasharray:none;stroke-opacity:1"
             id="path28348"
             cx="1.5130858"
             cy="6.8460937"
             rx="0.11575521"
             ry="0.13229166" />
        </g>
      </g>
      <text
         xml:space="preserve"
         style="font-size:1.41111px;line-height:1.25;font-family:sans-serif;stroke-width:0.264583"
         x="6.2177086"
         y="7.5240884"
         id="text30451"><tspan
           sodipodi:role="line"
           id="tspan30449"
           style="font-style:normal;font-variant:normal;font-weight:normal;font-stretch:normal;font-size:1.41111px;font-family:'Showcard Gothic';-inkscape-font-specification:'Showcard Gothic, Normal';font-variant-ligatures:normal;font-variant-caps:normal;font-variant-numeric:normal;font-variant-east-asian:normal;stroke-width:0.264583"
           x="6.2177086"
           y="7.5240884">3d</tspan></text>
    </g>
  </g>
</svg>
